<svg width="71" height="86" viewBox="0 0 71 86" fill="none" xmlns="http://www.w3.org/2000/svg">
<path d="M22.8092 13.9527L22.1171 13.2606L21.6703 12.8137M22.8092 13.9527L21.6703 12.8137M22.8092 13.9527L23.5252 13.2853L35.2274 2.37755L46.919 13.2755L47.635 13.9429L48.3271 13.2508L48.7642 12.8137L48.0473 12.0968L48.7642 12.8137C49.3976 12.1802 49.3976 11.1532 48.7642 10.5198L48.0895 11.1945L48.7642 10.5198L45.5823 7.33791L50.6277 2.29251L49.1903 5.89659C48.9425 6.51802 49.1016 7.22785 49.591 7.68401L50.2537 6.97311L49.591 7.68401L54.0791 11.8672L51.5035 16.4956L51.1176 17.1891L51.6981 17.7302L69.2402 34.0814L1.21455 34.0814L18.7433 17.7426L19.3238 17.2015L18.9379 16.5081L16.3553 11.8672L20.8434 7.68401C21.3328 7.22786 21.492 6.51802 21.2441 5.89658L19.8067 2.29251L24.8521 7.33791M22.8092 13.9527L24.8521 7.33791M21.6703 12.8137C21.0368 12.1803 21.0368 11.1532 21.6703 10.5198L24.8521 7.33791M21.6703 12.8137L24.8521 7.33791M25.1389 7.62465C25.1387 7.62443 25.1385 7.62422 25.1382 7.624L25.1389 7.62465ZM25.1389 7.05117L25.1382 7.05181L25.1389 7.05117ZM19.0768 0.462188C19.0768 0.462323 19.0769 0.462457 19.0769 0.462592L19.0768 0.462188Z" stroke="white" stroke-width="2.02756"/>
<path fill-rule="evenodd" clip-rule="evenodd" d="M42.2935 35.0957C42.2935 35.0989 42.2935 35.1021 42.2935 35.1052C42.2935 37.9047 44.5629 40.1741 47.3623 40.1741C50.1618 40.1741 52.4312 37.9047 52.4312 35.1052C52.4312 35.1021 52.4312 35.0989 52.4312 35.0957H50.4037C50.4037 35.0989 50.4037 35.1021 50.4037 35.1052C50.4037 36.7849 49.042 38.1466 47.3623 38.1466C45.6827 38.1466 44.321 36.7849 44.321 35.1052C44.321 35.1021 44.321 35.0989 44.321 35.0957H42.2935Z" fill="white"/>
<path d="M18.0239 35.0957C18.0239 35.0991 18.0239 35.1025 18.0239 35.1058C18.0239 37.9053 20.2933 40.1747 23.0928 40.1747C25.8923 40.1747 28.1617 37.9053 28.1617 35.1058C28.1617 35.1025 28.1617 35.0991 28.1617 35.0957H26.1341C26.1341 35.0991 26.1342 35.1025 26.1342 35.1058C26.1342 36.7855 24.7725 38.1472 23.0928 38.1472C21.4131 38.1472 20.0515 36.7855 20.0515 35.1058C20.0515 35.1025 20.0515 35.0991 20.0515 35.0957H18.0239Z" fill="white"/>
<path fill-rule="evenodd" clip-rule="evenodd" d="M29.6158 22.0283C29.1251 22.0283 28.7468 22.4607 28.812 22.947L29.7205 29.7286C29.7785 30.1611 30.1682 30.4702 30.6025 30.4282L39.8511 29.5332C40.2344 29.4961 40.5388 29.1946 40.5795 28.8116L41.205 22.925C41.2559 22.4459 40.8804 22.0283 40.3985 22.0283H29.6158ZM30.9543 22.9203C30.4636 22.9203 30.0853 23.3527 30.1505 23.8391L30.8179 28.8163C30.8758 29.2487 31.2655 29.5577 31.6997 29.5157L38.6809 28.8407C39.0642 28.8037 39.3686 28.5022 39.4093 28.1193L39.8669 23.8171C39.9179 23.3379 39.5423 22.9203 39.0604 22.9203H30.9543Z" fill="white"/>
<rect x="23.8834" y="56.3946" width="23.2966" height="28.0006" rx="7.09645" stroke="white" stroke-width="2.02756"/>
<path fill-rule="evenodd" clip-rule="evenodd" d="M10.8864 33.0771H8.85889V35.1047V55.3803C8.85889 64.7673 14.6581 72.7999 22.8692 76.0907V73.8879C15.8059 70.7181 10.8864 63.6237 10.8864 55.3803V37.1323V35.1047H12.914H57.5202H59.5478V37.1323V55.3803C59.5478 63.377 54.9184 70.2924 48.1934 73.5928V75.8276C56.0705 72.386 61.5754 64.526 61.5754 55.3803V35.1047V33.0771H59.5478H10.8864Z" fill="white"/>
<rect x="23.8834" y="56.3946" width="23.2966" height="28.0006" rx="7.09645" stroke="white" stroke-width="2.02756"/>
<path d="M44.6862 42.3643H25.3433C19.7444 42.3643 15.2056 46.9031 15.2056 52.502V54.7526C15.2056 59.4983 18.4664 63.4824 22.8697 64.5865V63.4914C22.8697 63.155 22.8902 62.8234 22.93 62.4977C19.6294 61.4704 17.2331 58.3913 17.2331 54.7526V52.502C17.2331 48.0229 20.8642 44.3918 25.3433 44.3918H44.6862C49.1654 44.3918 52.7965 48.0229 52.7965 52.502V54.7526C52.7965 58.0206 50.8636 60.8372 48.0787 62.1214C48.1544 62.5667 48.1939 63.0245 48.1939 63.4914V64.2672C52.0642 62.8399 54.824 59.1185 54.824 54.7526V52.502C54.824 46.9031 50.2852 42.3643 44.6862 42.3643Z" fill="white"/>
<path d="M27.675 50.5192L25.1822 44.5944H30.1677L27.675 50.5192Z" fill="white" stroke="white" stroke-width="0.405511"/>
<path d="M42.3747 50.5192L39.8819 44.5944H44.8674L42.3747 50.5192Z" fill="white" stroke="white" stroke-width="0.405511"/>
<path d="M34.4062 55.3711H36.0283V69.7667C36.0283 70.2147 35.6652 70.5778 35.2173 70.5778V70.5778C34.7694 70.5778 34.4062 70.2147 34.4062 69.7667V55.3711Z" fill="white"/>
</svg>
